<svg xmlns="http://www.w3.org/2000/svg" width="18.225" height="18.5" viewBox="0 0 18.225 18.5">
  <path id="Path_1" data-name="Path 1" d="M16.5-1.175A11.017,11.017,0,0,1,13.425.1a14.839,14.839,0,0,1-3.55.4,9.123,9.123,0,0,1-3.6-.7,8.792,8.792,0,0,1-2.85-1.913A8.74,8.74,0,0,1,1.55-4.963,9.191,9.191,0,0,1,.875-8.5a9.375,9.375,0,0,1,.588-3.35,8.018,8.018,0,0,1,1.675-2.7,7.738,7.738,0,0,1,2.6-1.8A8.5,8.5,0,0,1,9.125-17a10.291,10.291,0,0,1,3.85.612,5.8,5.8,0,0,1,2.2,1.412,2.265,2.265,0,0,1,.375.75,5.979,5.979,0,0,1,.188.887,8.706,8.706,0,0,1,.075.938c.008.317.012.9.012.9S17.033-8.65,18.1-8.65v.625a1.318,1.318,0,0,0-1.225.625A3.413,3.413,0,0,0,16.5-5.65Z" transform="translate(-0.375 17.5)" fill="none" stroke="#000" stroke-linejoin="round" stroke-width="1" opacity="0.3"/>
</svg>
