<svg xmlns="http://www.w3.org/2000/svg" xmlns:xlink="http://www.w3.org/1999/xlink" width="213" height="124" viewBox="0 0 213 124">
  <defs>
    <style>
      .cls-1 {
        fill: #fff;
      }

      .cls-2 {
        clip-path: url(#clip-path);
      }

      .cls-3 {
        fill: #131212;
        fill-rule: evenodd;
      }
    </style>
    <clipPath id="clip-path">
      <rect id="Rectangle_16" data-name="Rectangle 16" class="cls-1" width="213" height="124" transform="translate(613 582)"/>
    </clipPath>
  </defs>
  <g id="Mask_Group_1" data-name="Mask Group 1" class="cls-2" transform="translate(-613 -582)">
    <path id="path30" class="cls-3" d="M12.638-1458v-1.042c.13-1.563.13-.782.391-.13,1.173,4.821,5.081,8.078,10.293,7.427-3.257-1.563-4.951-4.821-7.818-7.166a12.823,12.823,0,0,1-2.736-2.606c-.391-.912.391-2.736.651-3.779a3.606,3.606,0,0,1,.13-1.172c.261-1.954.261-.782.261.13.782,5.082,4.169,8.469,9.511,8.469-3.388-1.824-5.993-6.515-8.469-9.642-1.3-1.563.391-8.99.521-5.342.391,4.169,3.388,8.469,7.818,8.729.651,0-1.564-2.476-2.345-4.039-1.564-3.258-5.6-6.124-4.3-9.772.521-1.563,1.433-4.56,1.3-2.866-.261,4.43,1.173,8.729,5.212,10.293.651.261,2.736,1.172,1.694.13-1.824-1.824-2.215-4.169-3.127-6.384-1.042-2.085-3.518-4.561-2.736-6.645a18.278,18.278,0,0,1,1.954-3.909c.391-.912-.261,2.476-.13,3.648a9.183,9.183,0,0,0,4.169,6.775c.391.26,3,1.563,2.215.651-1.694-1.824-1.954-4.039-2.606-6.384-.651-1.694-1.564-3.258-2.215-5.082-.13-.26-.651-1.042-.521-1.173.13-1.042,1.3-2.215,1.824-3a2.717,2.717,0,0,1,.521-.781c1.433-2.345.261.521.13,1.824a9.066,9.066,0,0,0,.651,4.169,7.738,7.738,0,0,0,3,4.039c.651.391,2.476,1.694,1.694.521-1.694-2.345-1.564-6.124-2.606-8.99-.13-.652-1.433-3-1.173-3.908a14.307,14.307,0,0,1,3.779-4.691c.261-.261-.261.391-.261.782a7.781,7.781,0,0,0-.782,1.433,10.3,10.3,0,0,0,1.433,8.338c.651.782,3.257,2.737,2.866,2.085a4.568,4.568,0,0,1-.782-1.824c-.651-2.867-.521-6.123-1.042-8.729-.391-1.563-1.042-2.606.13-3.779,1.042-1.172,4.691-4.951,2.736-1.824a7.98,7.98,0,0,0-.782,6.254,8.6,8.6,0,0,0,1.564,3.518c.391.391,2.085,1.954,2.085,1.563a78.913,78.913,0,0,1-.521-8.078c-.261-1.563-1.173-5.211,0-6.254a30.427,30.427,0,0,1,4.039-3.127c.261-.131-.261.391-.521.651a3,3,0,0,1-.651.913,6.876,6.876,0,0,0-1.042,3.257,8.523,8.523,0,0,0,2.736,8.078c.521.391-.13-1.563-.13-2.736.13-1.434.521-2.476.651-3.909.13-2.084-.261-4.561.13-6.645.13-1.172,1.954-1.824,2.606-2.215a7.737,7.737,0,0,1,2.606-1.563c.391-.26-.391.521-.782.913a8.626,8.626,0,0,0-1.954,2.866,10.167,10.167,0,0,0,.13,7.818c.13.26,1.694,2.736,1.564,1.563-.651-3.778,1.173-7.556,1.694-11.335.13-.521.13-2.084.521-2.476a25.688,25.688,0,0,1,3.257-1.563c3.257-1.563-1.433,2.085-2.085,5.472a9.928,9.928,0,0,0,.391,4.43c.13.391,1.3,2.346,1.433,2.085.261-1.042,0-2.215.261-3.258,1.042-3,1.954-6.124,3-9.381.521-2.084,3.909-1.564,5.6-2.736-3.257,2.606-5.733,6.124-4.3,10.684,0,.391.912,2.736.912,1.694,0-3.258,2.345-5.473,3.257-8.339.651-1.825.782-4.169,2.606-4.951a35.7,35.7,0,0,1,4.43-1.3c.261,0,.391.13,0,.521a7.394,7.394,0,0,0-.912.521,9.65,9.65,0,0,0-4.169,5.212,6.924,6.924,0,0,0-.391,4.3c.13.521.521,2.345.782,1.955a10.388,10.388,0,0,0,.391-1.955c.782-1.824,2.476-3.388,3.257-5.081a15.348,15.348,0,0,0,1.042-2.085c.912-2.084,1.694-3.387,4.56-3.778,1.042-.13,2.215-1.042,3-.391.261.261-.261.261-.651.261a9.709,9.709,0,0,0-1.564.912,7.846,7.846,0,0,0-3.257,3.258,9.082,9.082,0,0,0-1.3,4.951c0,.651.391,2.475.651,2.215.651-.782.651-2.084,1.3-3,2.085-2.605,3.909-5.211,5.733-7.817.782-1.172,3-1.172,4.951-1.042.651,0,1.3.131,1.694.131a14.585,14.585,0,0,0-1.694.651c-3,1.173-5.342,3-6.254,6.515-.13.521-.651,3.518,0,3.909.391.261.261-.782.391-1.042a11.662,11.662,0,0,1,1.954-2.476c1.433-1.433,2.606-2.736,3.909-4.169.651-.782,1.433-1.824,2.215-2.605,1.042-1.042,3.257-.782,5.212-.391.391,0,1.042.13,1.3.13-.391.13-.912.261-1.3.391a10.358,10.358,0,0,0-5.733,3.519A8.637,8.637,0,0,0,80-1513.762v1.694c0,.391.13.521.391,0,.912-2.085,3-3,4.56-4.3.782-.651,1.564-1.693,2.476-2.606,1.173-1.3,2.606-2.606,4.039-2.345.391,0,.651.13,1.042.13a37.3,37.3,0,0,1,3.648.913,16.416,16.416,0,0,0-3.648.521,8.344,8.344,0,0,0-4.039,2.475,9.947,9.947,0,0,0-1.042,1.434,6.2,6.2,0,0,0-1.042,2.345c-.261.652-.651,2.867.13,1.694a6.526,6.526,0,0,1,.912-1.042c1.3-1.3,3.257-1.954,4.821-3.257.13,0,.13,0,.261-.13,1.694-1.433,3.909-4.039,5.863-3.518,1.564.391,3,1.042,4.56,1.563a9.235,9.235,0,0,0-9.381,4.43,7.362,7.362,0,0,0-1.042,2.084c-.261.651-.521,1.433-.261,1.564.13.13.13.13.261-.131.13,0,.261-.521.391-.651.391-.391.782-.651,1.173-1.043,1.564-.912,3.257-1.563,4.821-2.475,1.563-.782,4.169-3.387,5.733-3.257,1.824.261,3.648,1.563,5.212,2.345-3.909-.782-7.818.13-10.163,3.127-.391.521-2.085,3-1.564,3.648.13.26.391-.391.651-.652a4.676,4.676,0,0,1,1.3-.912c1.433-.782,3.388-1.173,4.951-1.825,1.694-.781,4.3-2.866,6.124-2.736,1.694.261,3.648,1.955,4.951,2.736-3.779-.781-7.557-.651-10.293,2.346-.391.391-2.215,2.867-1.954,3.388.13.261.521-.391.782-.521.391-.261.912-.652,1.3-.913,1.694-.652,3.648-.652,5.212-1.3,1.954-.522,4.3-1.955,6.124-2.085,1.3-.13,3.909,2.736,4.951,3.519-4.56-1.564-10.163-1.564-12.638,3.257-.261.391,3.518-.521,5.863-.783,3.648-.391,6.645-2.605,9.511-.129a24.684,24.684,0,0,0,2.736,2.476c-3.388-1.694-7.3-2.346-10.684-.131-.782.521-3.257,3.127-2.085,2.606,1.954-1.042,4.039-.521,6.254-.651,3.257-.261,6.515-1.824,8.73.651.782.913,1.694,1.955,2.476,2.867-3.127-1.824-6.775-3-10.423-1.173-.782.521-3.518,2.867-2.215,2.476,2.345-.782,4.691,0,7.166,0,5.733.13,6.906-.391,9.9,4.821-2.866-2.215-6.515-4.3-10.423-2.605-.521.13-3.257,1.563-3.257,2.215,0,.261.651-.261.912-.261a6.275,6.275,0,0,1,1.564,0,24.229,24.229,0,0,1,5.342,1.042c1.954.26,5.6-.261,6.775,1.3a21.917,21.917,0,0,1,2.606,4.43c-2.606-2.605-5.863-4.69-10.033-3.518-.651.261-3.257,1.173-3.388,1.955-.13.261.521-.13.912-.13a3.206,3.206,0,0,1,1.563.13,34.471,34.471,0,0,1,5.212,1.563c1.694.392,5.472.392,6.515,1.824a18.759,18.759,0,0,1,1.954,4.691c-2.606-2.606-4.951-4.952-9.251-4.169-.651,0-3.518.651-3.648,1.433,0,.26.651,0,.912,0,.521,0,1.042.13,1.564.13,1.824.521,3.257,1.694,4.951,2.215,1.694.652,5.212.782,6.124,2.345.912,1.434,1.173,3.519,1.564,5.212-2.866-4.561-7.166-6.905-12.638-4.561,3,.261,4.691,1.955,7.166,3.258,1.564.912,5.081,1.563,5.993,3,.782,1.3.651,3.779.912,5.342-2.085-4.821-6.775-7.427-12.117-5.6,2.866.521,4.43,2.346,6.775,3.909,1.433.912,4.821,1.955,5.6,3.388s.261,4.3.391,5.863c-1.824-5.081-5.472-8.469-11.466-7.3,2.736.913,4.039,2.867,6.384,4.561,1.433,1.3,4.3,2.476,5.212,4.169.651,1.043-.261,4.3-.261,5.6-1.3-5.342-4.691-8.469-10.684-8.078,2.606,1.172,3.778,3.127,5.863,5.212,1.433,1.563,3.518,2.736,4.691,4.429.261.391-.13.913-.261,1.3-.13,1.563-.391,3-.651,4.56-.521-5.472-3.778-9.511-9.511-9.511,3,1.825,4.3,5.342,6.906,8.078,1.3,1.3,2.345,2.085,2.085,3.909-.13,1.434-.782,3-1.042,4.561-.651-5.733-2.866-9.512-8.86-10.293,3.388,2.606,5.212,7.035,7.557,10.423,1.3,2.085-.391,4.691-1.3,6.906.391-5.733-1.694-10.294-7.427-11.466,3.127,2.736,4.43,7.687,6.254,11.205,1.173,2.214-.782,4.56-1.954,6.515.782-5.6-.912-10.033-6.254-11.857,2.476,3.258,3.518,8.079,4.951,11.857.782,2.215-1.3,4.3-2.736,6.124,1.433-5.473.521-9.9-4.691-12.638,1.564,2.345,1.433,4.951,2.085,7.687.391,1.825,2.215,4.951,1.3,6.645a14.759,14.759,0,0,1-3.127,3.909c1.824-5.212,1.433-9.642-3.518-12.638,1.824,3.127,1.824,8.729,2.345,12.508.261,2.345-2.215,3.779-3.779,5.212,1.954-4.821,2.345-9.381-2.345-12.9,1.173,3.388.651,8.47,1.042,12.248.13,2.867-2.606,3.909-4.56,5.472,3-4.3,3.648-9.511-.521-13.42.651,2.736-.13,5.081-.521,7.817-.13,1.824.521,4.951-.261,6.515-.782,1.3-3.518,2.215-4.821,3,3.388-4.17,4.43-8.86.912-13.29.391,3-.651,5.082-1.3,7.687-.391,2.085-.261,4.3-.912,6.384-.13.391-.651.261-1.042.521-1.433.652-2.866,1.3-4.169,1.955,3.779-3.779,5.472-8.339,2.085-13.16.391,4.3-2.085,8.6-3.127,12.508-.651,2.605-3.909,2.214-6.124,3.387,4.56-3.127,6.775-7.687,4.039-13.029,0,3.127-1.954,5.082-3,7.688-.521,1.433-1.042,2.866-1.694,4.3-.912,2.215-3.909,2.345-6.124,2.736,4.43-2.867,7.036-6.775,5.081-12.378-.651,3.778-3.778,7.557-5.6,10.814-.13.261-.13.391-.261.652-.912,1.564-2.866,1.694-4.821,1.824-.651,0-1.173.13-1.564.13a17.442,17.442,0,0,1,1.564-.782,9.331,9.331,0,0,0,4.56-11.075c-.912,2.736-2.866,4.951-4.56,7.3a8.376,8.376,0,0,0-1.3,1.694c-.651,1.3-1.173,2.606-2.606,2.867a31.927,31.927,0,0,1-3.518.26h0a6.363,6.363,0,0,1-1.564-.13A7.968,7.968,0,0,0,80-1388.29c4.169-1.694,6.775-4.951,6.124-10.293-1.3,2.605-3,3.778-5.081,5.993-.391.391-.651.912-1.042,1.3-1.954,2.345-2.476,3.778-6.906,3.388-.651,0-1.173-.26-1.824-.26,5.212-.913,8.73-4.561,8.469-10.163-1.042,2.345-3,3.257-4.951,4.951-1.694,1.694-3.909,5.212-6.384,4.821-.651-.13-1.3-.26-1.824-.391a15.232,15.232,0,0,1-2.606-.652,17.842,17.842,0,0,0,2.606-.391c4.039-1.042,6.906-3.647,7.3-8.6-1.694,2.345-4.039,3.257-6.254,4.691a7.414,7.414,0,0,1-1.042.911c-1.433,1.3-3.127,3.128-4.43,3a15.891,15.891,0,0,1-4.951-1.693c4.3,0,7.687-1.563,9.381-4.82a10.728,10.728,0,0,0,.912-3.257c-.261.391-.651.651-.912,1.042-2.476,2.084-5.342,2.867-7.948,4.821-.912.651-2.345,1.693-3.388,1.563a11.028,11.028,0,0,1-3.648-1.563,1.376,1.376,0,0,1-.651-.261c-1.173-.521-.521-.261.13-.261,5.212.652,9.511-2.084,10.814-6.905-2.606,2.606-6.515,3-9.642,4.561-.912.521-2.476,1.563-3.518,1.563a11.369,11.369,0,0,1-3.127-1.954c-.391,0-.521-.261-.782-.261-1.042-.651-.782-.651-.261-.391,5.081,1.172,9.772-1.173,11.466-5.733-3,2.085-6.906,2.215-10.033,3.518-.912.391-2.345,1.3-3.388,1.172-.912-.13-2.215-1.563-3.127-2.214-.261-.261-.521-.391-.782-.651-1.564-1.173-.651-.651.13-.261a9.291,9.291,0,0,0,11.987-4.561c-2.476,1.694-5.212,1.3-8.078,1.955a46.584,46.584,0,0,0-4.56,1.173c-1.954.391-7.3-4.691-4.43-3.127,4.43,2.346,9.121.261,11.857-3.387-3.257,1.433-8.6,1.172-12.248,1.563-1.433.26-1.564.26-2.606-.652a31.135,31.135,0,0,1-2.866-3c-.261-.391-.391-.651,0-.391,4.691,2.736,9.381,2.605,13.029-1.694-3.648,1.172-8.339.391-12.378.391-2.476.13-4.169-2.476-5.081-4.56-.261-.521.13.129.391.129,4.169,3.388,8.99,3.779,13.029.131-3.648.521-6.775-.782-10.554-1.173-1.433,0-3.127,0-4.039-.912-.13-.261-3.909-5.863-1.824-3.909,3.648,3.518,8.6,4.039,12.638,1.042-3.648.521-6.906-1.563-10.423-2.215-1.3-.13-3-.261-3.648-1.3-.391-.391-2.866-5.863-1.694-4.169a9.562,9.562,0,0,0,12.638,2.346c-3.909,0-6.645-2.346-10.163-3.257-1.173-.261-3-.521-3.518-1.434-.521-.651-2.866-7.166-1.042-4.56,2.736,4.169,7.3,6.124,12.117,3.909-3.778-.652-6.384-3-9.642-4.43-1.042-.391-3-1.043-3.518-1.955-.521-1.042-.521-2.736-.782-3.779v-.912c-.261-1.3,0-.521.13,0,2.345,4.69,6.775,6.514,11.857,5.081-3.518-.912-6.124-3.778-9.251-5.342-.912-.391-2.736-1.173-3.127-2.085-.521-1.042-.261-2.736-.391-3.909v-.912c-.13-1.563.13-.651.391.13,1.824,4.56,5.6,7.3,11.075,6.124-3.518-1.173-5.733-4.17-8.6-6.254a10.867,10.867,0,0,1-3-2.475C11.987-1455.26,12.508-1456.954,12.638-1458Zm-.521-1.173c-.13,1.3.13,3.909-.651,4.951-1.564,2.215-3.648,4.17-5.081,6.384-1.694,1.955-2.345,4.43-4.56,5.863-1.3.912,2.866.13,3.779-.391a13.879,13.879,0,0,0,4.951-4.56,5.9,5.9,0,0,0,1.042-2.867c.13-.391.13-.782.261-1.3,0-.13,0-.782.13-.651.391.26.13,3.518.13,4.169.261.651-.912,2.215-1.433,2.867-1.694,2.605-3.388,4.69-4.43,7.426a9.434,9.434,0,0,1-1.564,3c-.391.261-1.564,1.042-1.694,1.434s.651-.13,1.042-.13a10.516,10.516,0,0,0,7.427-5.6,12.555,12.555,0,0,0,1.3-3.908v-1.173c0-.391-.261-1.173-.13-.912.13.912,1.173,3.518.782,4.43a15.988,15.988,0,0,1-1.564,3.388,42.168,42.168,0,0,0-3.518,7.818,7.135,7.135,0,0,1-2.215,3.648c-.521.651,2.476-.521,3.257-.912,2.736-1.693,5.081-5.342,4.951-8.469,0-.391-.391-2.084-.13-2.476s.261.912.391,1.433a9.774,9.774,0,0,0,.651,2.085c.521,1.563-1.042,3.909-1.694,5.342-1.433,3.647-1.824,7.557-4.039,10.814a14.4,14.4,0,0,0,3.127-1.3,11.149,11.149,0,0,0,4.43-8.339c0-.913-.651-2.085-.391-2.867,0-.391.13.521.261.912a7.986,7.986,0,0,0,.651,1.564c.782,1.563.13,3-.261,4.821-.912,3.127-.912,7.556-2.085,10.684-.261.781-1.824,2.606-.651,2.084a10.733,10.733,0,0,0,5.342-12.378c-.912-2.736,1.824,2.346,1.694,3.779-.391,2.606-1.042,5.081-1.3,7.817,0,2.606.261,4.821-.782,7.167-.782,1.563.782,0,1.173-.391a10.366,10.366,0,0,0,3.779-7.426,9.193,9.193,0,0,0-.521-3.909c-.13-.652-1.042-2.215-.521-1.563A17.812,17.812,0,0,1,25.8-1413.7h0c.391.391,0,1.824,0,2.346-.13,3.648.261,7.557,0,11.075a8.441,8.441,0,0,1-.261,2.606c-.13.26-.651.912-.391.782,2.866-.261,4.3-6.124,4.43-8.208s-1.824-6.124-1.173-5.472c3.648,3.388,1.954,9.25,3.388,13.681a8.466,8.466,0,0,1,.521,4.04c0,.521-.521,2.214-.13,1.693.261-.391.651-.651.912-1.042,2.736-3,2.736-8.469.912-11.857a2.835,2.835,0,0,0-.651-1.042c-.261-.26-.912-1.042-.651-.782a7.107,7.107,0,0,1,3.518,4.56c.651,2.606.912,5.342,1.564,7.688.521,1.693,1.3,3.127,1.433,4.821,0,.521-.391,2.345-.13,2.606.13.391.391-.651.651-.912a3.077,3.077,0,0,0,.782-1.173,11.426,11.426,0,0,0,.651-8.078,8.317,8.317,0,0,0-2.085-3.778c-.391-.391-1.433-1.173-.912-1.042,2.215.13,4.039,3.518,4.56,5.342.651,2.215,1.173,4.56,1.954,6.775.782,1.955,1.824,3.388,1.824,5.864,0,2.084,1.824-2.346,1.954-3.648a11.392,11.392,0,0,0-1.3-6.906c-.521-.912-3.518-3.518-2.215-2.867,2.085,1.042,3,1.564,3.909,3.519,1.564,3.648,3.778,7.166,5.212,10.813a6.555,6.555,0,0,1,.651,1.694c0,.391,0,1.694.261,1.563,3.127-3,.261-10.033-1.564-12.248a7.973,7.973,0,0,0-2.215-1.954.128.128,0,0,1-.13-.131c1.954.913,3.518,1.3,4.691,3.258,1.824,3.126,3.388,5.993,5.472,8.99a9.444,9.444,0,0,1,1.564,3c.13.391,0,1.433.261,1.3.912-.912,1.042-3.648.912-4.951-.261-2.475-1.564-5.6-3.518-7.166a20.779,20.779,0,0,1-2.866-1.694c0-.13.391,0,.521.13a4.139,4.139,0,0,1,1.173.391c2.085.781,2.606.781,3.909,2.605a54.7,54.7,0,0,0,3.388,4.3c1.3,1.563,2.606,3.126,3.778,4.69.521.782,1.564,3,1.564,2.736a10.933,10.933,0,0,0-5.212-11.987h-.13a4.018,4.018,0,0,0-1.3-.651c-.13-.131-.391-.131-.651-.261.782.13,1.3.261,1.954.391,3.388.912,4.3,3.257,7.3,6.124,2.345,2.345,4.691,4.039,6.124,6.775,0,.13.13.261.261.391A9.026,9.026,0,0,0,80-1379.95a11.765,11.765,0,0,0-3.257-4.952,8.182,8.182,0,0,0-2.345-1.563c-.912-.391-3-1.042-1.954-.782,1.433.13,3.127-.13,4.3.651a17.424,17.424,0,0,1,3.257,3,20.2,20.2,0,0,0,1.694,1.563c1.694,1.433,3.648,2.345,5.212,3.908.261,0,.261.131.521.391.651.912,1.694,2.345,1.694,1.824a8.441,8.441,0,0,0-.261-2.606,9.859,9.859,0,0,0-1.433-3.388,11.289,11.289,0,0,0-6.906-4.69c-.13-.13-.391-.13-.521-.26-.521,0-.391-.131,0-.131.912-.13,3.909.131,4.56.651.912.652,1.954,1.434,2.866,2.085a36.961,36.961,0,0,0,3.648,2.605,13.734,13.734,0,0,0,1.433.913,12.982,12.982,0,0,1,4.43,3.257c1.042,1.433.261-.782.261-1.563-.261-2.867-2.215-4.821-4.691-6.254a14.917,14.917,0,0,0-5.081-1.824c-.261,0-.261-.13-.521-.13h.521a10.514,10.514,0,0,1,5.081.651c2.736,1.042,4.951,2.867,8.208,4.039a11.979,11.979,0,0,1,3.648,1.825c.261.26,1.433,1.433,1.564,1.3.13-.261-.261-1.042-.261-1.3-1.694-5.212-6.124-7.558-11.726-7.558,1.694-.521,3.518-1.3,5.212-.651,3,1.3,5.863,3,9.121,3.779a10.288,10.288,0,0,1,3.778,1.433c.391.26,1.564,1.433,1.694,1.172a4.968,4.968,0,0,0-.391-1.3c-1.824-4.951-7.036-6.775-12.248-6.384,1.564-.651,3.388-1.694,5.081-1.173,3.127,1.042,5.993,2.345,9.381,2.866a11.573,11.573,0,0,1,3.779,1.042,17.312,17.312,0,0,0,1.824,1.042,2.314,2.314,0,0,0-.521-1.3c-2.345-4.821-7.557-6.124-12.769-5.212,1.173-.521,2.606-1.563,3.909-1.824,2.215-.391,5.472,1.173,7.818,1.564,2.606.521,5.342.13,7.557,1.042,1.694.782,1.694.521.521-.782a10.879,10.879,0,0,0-13.551-3.126c.912-.521,3-2.345,4.039-2.345,3.648,0,7.3,1.3,11.205.651,2.085-.26,6.384,1.433,5.081-.13-3.778-4.43-8.99-4.43-14.072-2.345,1.042-.782,2.085-1.433,3.127-2.345.521-.391.521-.912,1.173-.912,2.866-.391,6.124.13,8.99-.391,2.476-.391,4.951-1.042,7.427-.391,1.173.391.521,0,0-.651-3.909-4.43-10.814-3-14.984,0,.912-.912,1.824-1.564,2.606-2.476.261-.391.912-1.3.912-.782,0-.782,1.433-.651,2.085-.782,1.433-.13,2.736-.26,4.3-.39,3-.391,5.6-1.694,8.6-1.694.651-.13,2.345.13,2.345,0-.521-1.563-4.3-2.606-5.733-2.866-4.3-.391-6.775,1.3-9.642,3.518.912-1.172,1.824-3,2.866-3.778,1.564-1.042,4.43-1.173,6.254-1.694,2.866-.651,5.472-2.215,8.469-2.736a3.629,3.629,0,0,1,1.3-.13c.261,0,1.042.26.912,0-.651-1.433-4.56-2.215-6.124-2.085-4.56.13-6.906,2.215-9.772,5.342a43.324,43.324,0,0,1,3-4.821c1.824-1.693,5.733-1.955,8.078-2.866,2.866-1.3,4.821-3.257,8.339-3.257-5.472-3.257-11.335-.912-14.984,3.909.651-1.3,1.173-3.257,2.085-4.3,1.564-1.955,5.472-2.476,7.687-3.779,2.736-1.563,4.43-3.388,7.818-3.778a10.958,10.958,0,0,0-14.463,4.951,22.873,22.873,0,0,1,1.564-4.169c.912-1.3,3.388-2.346,4.691-3.127,3.388-1.955,5.993-5.473,10.033-6.385-6.254-2.084-11.726,1.564-13.941,7.036.391-1.433.521-3.388,1.3-4.821,1.173-2.084,4.691-3.387,6.515-5.211,2.345-2.215,3.909-4.3,6.775-5.342-4.691-1.3-8.99,1.043-11.6,4.821a22.461,22.461,0,0,0-1.3,3.126c.13-1.433.391-3,.651-4.429.261-1.825,4.3-4.3,5.472-5.6,2.345-2.606,3.648-5.211,6.775-6.906-6.645-.651-11.205,3.909-12.117,10.033.13-1.564.261-3,.261-4.691,0-2.084,3.518-4.56,4.821-6.253,1.954-2.736,3-5.472,5.993-7.427a10.847,10.847,0,0,0-10.423,7.3c-.391,1.042-.261,2.345-.651,3.387,0-1.433-.651-4.039.13-5.211,1.173-2.085,2.606-3.909,3.779-5.864,1.694-2.866,2.345-5.862,5.081-8.208-6.384.782-9.642,5.863-9.642,12.378-.13-1.563-1.042-4.17-.521-5.6.782-2.084,2.085-4.039,3.127-6.254,1.564-3,1.694-6.124,4.43-8.469a10.939,10.939,0,0,0-8.73,9.25,28.343,28.343,0,0,0,.13,3.388c-.391-1.3-.782-2.736-1.173-4.039-.13-2.346,1.694-5.212,2.476-7.427,1.173-3.257,1.173-6.385,3.257-9.251-5.733,2.215-8.469,8.079-6.645,14.2-.651-1.825-2.215-3.909-1.694-5.864,1.042-4.43,1.564-11.465,3.909-15.5a10.859,10.859,0,0,0-5.733,13.42c.651,1.955-.521-.781-.912-1.433-1.042-1.955-.912-3.257-.521-5.472.782-4.169.261-9.642,1.954-13.29-5.081,3.257-6.124,8.73-4.169,14.333-.782-1.042-1.564-2.215-2.345-3.257h.13c-.651-.391-.261-3.257-.261-4.17.261-4.43-1.042-9.381.391-13.29-4.691,3.909-5.472,10.033-2.085,15.244-.912-1.042-2.476-2.215-3.127-3.518-1.042-2.085-.391-5.994-.651-8.469-.391-3-1.433-5.472-.782-8.729-4.169,3.778-4.56,11.2-.391,15.244a16.324,16.324,0,0,1-3.518-3.127c-1.3-1.955-.912-5.863-1.564-8.208-.782-3-1.954-5.212-1.563-8.6-3.648,4.3-3.648,11.206.912,15.114-.782-.652-3.388-1.955-3.648-2.736-.912-2.215-1.3-4.821-2.215-7.167-1.3-3-3-5.472-3-9.25-3.779,5.081-1.564,11.6,3.127,15.244-1.173-.782-3.909-1.694-4.56-3-1.042-2.084-1.694-4.43-2.736-6.514-1.433-3.127-3.257-5.212-3.779-8.86a11.1,11.1,0,0,0,4.169,14.592c-1.3-.521-2.606-1.172-3.909-1.693h0c-1.173,0-3.257-5.994-3.778-6.645-1.694-3-4.039-4.821-4.691-8.339-2.476,5.473.651,10.814,5.212,13.812-1.694-.651-3.518-.782-4.691-2.215-1.564-2.084-2.736-4.43-4.56-6.384-.13-.13-.261-.391-.521-.521-1.824-2.085-3.388-3.388-4.169-5.994a5.227,5.227,0,0,0-.391,1.955,6.315,6.315,0,0,0,0,2.215,11.51,11.51,0,0,0,5.081,7.687c.782.391,1.564.912,2.476,1.3a8.407,8.407,0,0,0-2.476-.521,10.215,10.215,0,0,0-1.824-.261c-.782,0-2.606-2.736-3.257-3.648-.13-.13-.261-.261-.261-.391-2.215-2.736-5.6-4.56-7.166-7.687a9.441,9.441,0,0,1-.651-1.172,10.121,10.121,0,0,0,.651,5.994,12.807,12.807,0,0,0,7.166,6.384c-3.779,0-5.212-1.173-7.166-3.127-.651-.651-1.433-1.433-2.215-2.345-2.606-2.215-5.472-3.127-7.166-6.254,0,6.254,3.518,9.9,9.381,11.335a16.665,16.665,0,0,0-2.476.13H75.961c-1.042-.13-2.345-1.563-3-2.084-2.085-1.434-4.3-2.736-6.384-4.169a17.5,17.5,0,0,1-4.43-3.778,11.646,11.646,0,0,0,4.43,8.078,13.793,13.793,0,0,0,5.993,2.345,21.554,21.554,0,0,1-3.909.521,6.82,6.82,0,0,1-2.085-.782c-1.824-.912-3.778-2.606-5.342-3.388-2.736-1.433-5.212-1.954-7.557-4.3.651,5.995,5.863,8.86,11.857,8.991-1.433.391-2.736.781-4.039,1.042-1.564.391-5.472-2.476-6.906-3.128-3.127-1.433-6.124-1.433-8.86-3.908,1.433,4.039,3.909,6.775,8.339,7.948,1.173.391,2.345-.13,3.648.13,1.433,0-1.173.521-1.694.782-1.954.651-2.606.26-4.56-.391-4.039-1.172-9.9-1.694-13.55-4.039,1.824,3.648,4.56,6.254,9.121,6.775,1.433.13,2.606-.521,4.039-.521,1.564,0-1.3.782-1.824,1.042-1.694.913-2.476.652-4.43.261-4.039-.782-10.163-.782-13.811-2.736a9.891,9.891,0,0,0,7.3,5.472,9.621,9.621,0,0,0,5.081-.13,3.112,3.112,0,0,1,1.173-.391c.13,0,.651-.391.521-.13-.13.521-.782.521-1.3.782-3.257,1.954-5.6,1.042-9.772.782-3.518-.261-6.515.521-9.511-.912a10.392,10.392,0,0,0,7.948,4.821c2.215.26,7.3-1.955,5.6-.652-.912.652-1.824,1.824-3,1.954-2.215.261-4.691,0-7.036.261-3.518.26-6.384,1.173-9.642.26a11.144,11.144,0,0,0,14.2,2.085,4.151,4.151,0,0,1,.782-.652c.521-.13-.391.521-.521.521l-1.954,1.955c-1.173,1.3-4.039,1.172-5.733,1.3-4.169.521-7.818,2.476-11.857,1.564,3.127,3.257,8.99,4.3,12.9,1.693.912-.651,2.476-1.954,1.694-1.173-.391.391-2.345,3.388-2.345,2.867,0,.391-3,.781-3.518.913-4.3.912-8.339,3.387-13.029,3a10.321,10.321,0,0,0,8.99,2.085,8.873,8.873,0,0,0,4.3-2.085c.261-.26.912-.782,1.173-1.042-1.564,1.694-1.433,3-3.648,3.908-2.476,1.043-5.342,1.564-7.687,3-2.215,1.173-4.039,2.345-6.775,2.345a11.059,11.059,0,0,0,11.336-.13c1.042-.651,1.694-1.824,2.736-2.606,1.173-.912-.391,1.173-.651,1.825-.782,1.563-1.694,1.955-3.388,2.866-3.909,1.825-8.078,5.343-12.638,5.994a10.659,10.659,0,0,0,11.075-1.173c1.173-.782,1.564-1.955,2.606-2.867.912-.782-.391,1.3-.521,1.955-.651,1.824-1.564,2.215-3.127,3.257-3.648,2.215-7.687,6.384-11.987,7.687,4.3.912,7.818.391,11.075-2.606a26.172,26.172,0,0,0,2.215-3.517c1.042-1.173-.13,1.433-.261,2.084-.521,1.955-1.173,2.476-2.736,3.518-3.388,2.736-7.036,7.166-11.075,8.73a10.559,10.559,0,0,0,10.684-3.519c.912-1.042,1.173-2.345,1.824-3.387.912-1.3,0,1.3,0,1.954a6.409,6.409,0,0,1-2.345,3.909C6.906-1456.563,4.039-1452,.13-1449.788a11.139,11.139,0,0,0,11.075-6.254,7.465,7.465,0,0,0,.521-1.824c.13-.521.391-1.955.391-1.3" transform="translate(640 2129)"/>
  </g>
</svg>
